<svg xmlns="http://www.w3.org/2000/svg" xmlns:xlink="http://www.w3.org/1999/xlink" id="btgPacAdvLogo_white_1" x="0px" y="0px" viewBox="0 0 512 190.9" style="enable-background:new 0 0 512 190.9;" xml:space="preserve"><style type="text/css">	.st0{fill:#FFFFFF;}</style><g>	<g id="Logo_1_">		<g id="btg_pactual_-_logo_1_">			<path id="btg_1_" class="st0" d="M198.1,76.6c-18.3,0-26.7,7.7-26.7,25.3v2.7c0,16.7,7.3,24.8,24.5,24.8c5.5,0,11-1,14.9-4.1v2    c0,9.4-4.1,12.5-13.7,12.5h-5.8c-3.3,0.1-4.8,0.6-6.8,3.9l0,0c-16.5,26.1-45.1,42.1-76.4,42.1c-49.8,0-90.3-40.5-90.3-90.3    S58.4,5.2,108.2,5.2c35,0,66.8,20.3,81.7,51.8h4.2c-15.2-33.8-48.8-55.6-85.9-55.6c-51.8,0-94.1,42.2-94.1,94.1    s42.2,94.1,94.1,94.1c30.5,0,58.7-14.6,76.2-38.9h13.5c17.7,0,26.8-6.7,26.8-23.8v-25.8C224.8,84,215.9,76.6,198.1,76.6z     M210.9,106.4c0,9.4-3.3,12.3-12.8,12.3c-10.7,0-12.8-3.7-12.8-14.6v-1.7c0-10.8,1.9-14.7,12.8-14.7c10.7,0,12.8,3.8,12.8,14.8    V106.4z M68.9,57.7v49.1c0,18.2,8.4,25.8,26.7,25.8c19,0,27.4-7.4,27.4-25.7v-4.7c0-17.2-7.8-25.6-24.8-25.6    c-5.4,0-11.3,1.1-15.3,4.2V55.5L68.9,57.7z M96.2,87.6c9.6,0,13,3.8,13,15.1v4.2c0,11-3.4,14.8-13.2,14.8s-13.2-3.8-13.2-14.9    v-5.7C82.8,91,86.2,87.6,96.2,87.6z M164.4,89.5l2.3-11.2h-19.8V63l-13.9,2.1v45.7c0,15.8,6.2,20.5,23.1,20.5h7.4l2.3-11.1h-8.7    c-7.7,0-10.2-1.9-10.2-10.3V89.5H164.4z"></path>			<path id="pactual_1_" class="st0" d="M263.3,80.6c-13.7,0-20.1,6.8-20.1,21.3v39.5h4.3v-20.3c3.1,4.1,8.9,6.4,16,6.4    c13.6,0,19.7-6.6,19.7-21.3v-4.5C283.2,87.1,277.2,80.6,263.3,80.6z M278.8,106.2c0,12.5-4.1,17.1-15.3,17.1    c-10.5,0-15.9-5.1-15.9-15.3v-6.2c0-12.1,4.5-17.1,15.6-17.1c11.2,0,15.5,4.8,15.5,17L278.8,106.2L278.8,106.2z M465,81.3h-11.7    l-1,4.2H465c11.6,0,15.5,3.1,15.5,12.2v4.4c-2.9-2.9-8-4.3-15.1-4.3c-11.5,0-17,4.9-17,14.8v0.7c0,9.4,5.5,14.1,16.3,14.1h2.9    c11.5,0,17.3-4.7,17.3-14.1V97.7C484.8,86.1,479,81.3,465,81.3z M480.5,114c0,6.7-3.7,9.3-13.1,9.3h-1.8c-9.1,0-13-3-13-9.9v-0.7    c0-7.5,3.7-10.8,12.3-10.8h0.7c10.4,0,14.8,3.1,14.8,10.4v1.7H480.5z M493.7,64v63.6h4.3V64H493.7z M396.5,85.5l1-4.2H378v-12    l-4.4,0.8v41.1c0,11.7,4.4,16.1,16.2,16.1h6.4l0.8-4.2h-7.2c-8.9,0-11.7-2.8-11.7-11.6v-26H396.5z M436.3,109.3    c0,10.8-3.4,14.3-13.9,14.3c-10.2,0-13.7-3.6-13.7-14.3v-28h-4.4v28c0,13.3,5.1,18.5,18.1,18.5s18.2-5.4,18.2-18.5v-28h-4.3    L436.3,109.3L436.3,109.3z M306.8,81.3H295l-1,4.2h12.7c11.5,0,15.4,3.1,15.4,12.2v4.4c-2.9-2.9-8-4.3-15.1-4.3    c-11.5,0-17,4.9-17,14.8v0.7c0,9.4,5.5,14.1,16.4,14.1h2.9c11.4,0,17.2-4.7,17.2-14.1V97.7C326.5,86.1,320.8,81.3,306.8,81.3z     M322.2,114c0,6.8-3.5,9.3-13,9.3h-1.8c-9.2,0-13.1-3-13.1-9.9v-0.7c0-7.5,3.7-10.8,12.3-10.8h0.7c10.4,0,14.8,3.1,14.8,10.4v1.7    H322.2z M338.8,106.2v-3.9c0-12.4,4.2-16.8,16.2-16.8h10.1l1-4.2H355c-14.3,0-20.7,6.5-20.7,21v3.9c0,14.5,6.4,21,20.7,21h10.2    l1-4.2H355C343.2,123.1,338.8,118.4,338.8,106.2z"></path>		</g>	</g></g></svg>